PathFileType	4	(X/Y/Z)	Patient4_TMGait_0pt5_01_right_33.trc.trc
DataRate	CameraRate	NumFrames	NumMarkers	Units	OrigDataRate	OrigDataStartFrame	OrigNumFrames
81.871345029240	81.871345029240	5	33	mm	81.871345029240	89	       141
Frame#	Time	L.ASIS			Sacral			L.Shoulder			Chest			R.Shoulder			Neck			R.ASIS			R.Thigh.Superior			R.Thigh.Lateral			R.Thigh.Inferior			R.Patella			L.Thigh.Superior			L.Thigh.Lateral			L.Thigh.Inferior			L.Patella			L.Shank.Superior			L.Shank.Lateral			L.Shank.Inferior			R.Shank.Superior			R.Shank.Lateral			R.Shank.Inferior			R.Heel			R.Midfoot.Superior			R.Midfoot.Lateral			R.Toe			L.Heel			L.Midfoot.Lateral			L.Midfoot.Superior			L.Toe			L.Elbow			L.Wrist			R.Elbow			R.Wrist			
		X1	Y1	Z1	X2	Y2	Z2	X3	Y3	Z3	X4	Y4	Z4	X5	Y5	Z5	X6	Y6	Z6	X7	Y7	Z7	X8	Y8	Z8	X9	Y9	Z9	X10	Y10	Z10	X11	Y11	Z11	X12	Y12	Z12	X13	Y13	Z13	X14	Y14	Z14	X15	Y15	Z15	X16	Y16	Z16	X17	Y17	Z17	X18	Y18	Z18	X19	Y19	Z19	X20	Y20	Z20	X21	Y21	Z21	X22	Y22	Z22	X23	Y23	Z23	X24	Y24	Z24	X25	Y25	Z25	X26	Y26	Z26	X27	Y27	Z27	X28	Y28	Z28	X29	Y29	Z29	X30	Y30	Z30	X31	Y31	Z31	X32	Y32	Z32	X33	Y33	Z33	

89	44.494857142857	818.277645237771	954.576518324360	316.222596278661	621.445937369827	1012.988912843682	493.351974987086	788.164612869261	1420.340136279291	277.624493778483	908.130873777034	1352.558632583831	427.072524444505	852.910152840280	1442.827208181111	605.193165298094	816.446810010484	1489.861495380537	421.206514298365	852.556217888353	934.320520661191	589.060171557781	870.901165124834	724.493299418295	561.756278220679	782.316619646993	622.841991422737	627.132130910746	848.824725498317	559.741375891348	544.993129509202	834.790569928404	456.130703092404	558.485816622978	884.465440266440	763.284910424510	349.407102749399	810.534719555687	640.582141128540	286.806899954450	903.280963682163	570.073486719919	348.703394490439	911.157047758774	498.406504608149	355.141306963025	888.236497910993	425.879285995900	344.290199045270	806.382299596714	307.575420136152	290.224832108197	866.034366974995	197.595396986450	356.663921402770	767.008578149884	385.956946176334	568.133640413385	660.661621201434	326.403596787990	637.597223158460	652.992721586922	220.687941537061	581.237950986574	458.145139539227	117.945077288451	567.503342885315	638.676577742395	109.948708668007	596.628158607731	536.642992619779	81.355758982544	637.865138692553	732.297239635112	35.147531398885	620.891070176819	746.786396740357	38.161869314753	395.437138698679	820.022949737809	35.492899905691	313.764730870238	903.179668454760	96.889367767117	339.460748707538	1031.374573293257	45.269432584976	309.890715478843	685.916562949330	1072.510591573158	189.691473486584	747.542413887145	819.828975444355	155.920534003786	916.347958933791	1100.809737213502	716.908945067098	1125.779472436688	1010.133165894290	601.609503456343	
90	44.507071428571	819.644636310112	955.425665165599	314.463585143328	622.092475779683	1013.495017283856	490.580165205928	790.233395605220	1421.304576358950	275.901906459664	909.179221261344	1353.349046021282	426.067811039226	852.815502368746	1443.445530013406	603.901911570694	817.525458920360	1490.624065608663	419.682787776026	852.750930581921	934.905686290975	587.206418024805	875.001205938669	726.205643049843	559.839072256707	788.397270607313	623.164652962572	624.995455089428	856.718384412063	560.843100440815	543.215810004856	843.604663872288	455.956600776275	557.518295795194	884.251719361138	762.317652381554	346.673485393852	808.682087078008	640.555174015536	285.164148471171	900.608669737857	569.236778977660	347.361959997150	907.809119640611	497.693879775186	354.112036897960	884.441689235151	425.373436753996	343.361025132654	801.991859826015	307.453449911163	289.581628895374	860.789851131424	197.315960826508	356.404683069710	773.901444853742	386.639767407374	567.057529014030	665.581733301871	330.461023445750	636.222649475736	655.484477515602	224.536810468327	580.798455630885	457.967092151812	129.133406217304	567.116511439408	637.708839076778	112.275197802586	596.368859034327	534.439762089243	88.949056676653	637.590639269743	726.751183544347	34.527623803127	620.584671236554	740.667820266890	38.175408715043	395.391486975079	813.885309975160	35.453506756975	313.716233199657	897.138100490287	96.772069858723	339.402569938267	1025.313377371365	44.847959660936	309.790657594579	688.381095242969	1073.778908857133	186.320826748556	755.205222049878	822.281626021020	152.103143188603	910.475515945100	1099.913062908183	715.700101305539	1116.329040671467	993.380604749707	606.192936806877	
91	44.519285714286	820.855467455760	956.151378494587	312.731857223256	622.533213246218	1013.896772044215	487.850656329772	792.302043576104	1422.204571015391	274.362208148519	910.153185584840	1353.998918354394	425.276087442798	852.558332903578	1443.827820034964	602.842983298177	818.509742609990	1491.267951427921	418.398356049892	852.824540228435	935.356646155090	585.364171497509	879.212849906022	728.040301920595	557.771678887636	794.926602591164	623.560453084369	622.869416913140	864.974563026378	562.147546428138	541.322842526807	852.924398429849	456.035871126974	556.364973244010	883.992230531844	761.372032874489	343.983880597840	806.866158675626	640.483632651664	283.546496600112	898.030458810434	568.421929052363	345.988064037480	904.581018109352	496.981960541796	353.041991086182	880.751873855641	424.832963466783	342.422396442293	797.670102813526	307.318461810776	288.911926838442	855.607971816788	197.020480196029	356.127842012691	781.374504515047	387.501341264086	565.881702411584	671.227209174566	334.753103879379	634.805469096302	658.631657036866	228.712839573254	580.298927011540	458.767939626742	141.177678840599	566.679621124828	637.166305990451	114.970870281738	596.014325019648	532.891641719650	97.313260781076	637.268186028025	721.226493511891	33.731373439477	620.264932830681	734.543236372385	38.203946238317	395.329619150029	807.747328198249	35.414313977911	313.657291687189	891.113874453176	96.644866800913	339.339116836943	1019.255970795385	44.398269009542	309.694703511469	691.081508962064	1074.992272717162	182.899249790173	762.933988724244	824.754639050064	148.309376920302	904.521125519452	1098.881800557398	714.603692333390	1105.725503553886	976.617795177010	611.471215268938	
92	44.531500000000	821.908639011332	956.746700270583	311.010929259851	622.776878119585	1014.201053868121	485.180715279954	794.335914064076	1423.046025508610	273.023439279110	911.047982243135	1354.500197446655	424.684378052346	852.177860482927	1443.962915568816	602.017538885099	819.417583488313	1491.792861622099	417.366720485327	852.775697557526	935.694390547083	583.534199397871	883.447812946292	730.013030423146	555.544411820798	801.826711147490	624.076899773014	620.775837575209	873.477467100604	563.700307684826	539.317128717625	862.667840648932	456.415183231679	555.026921766100	883.743131889137	760.496354376226	341.421080861143	805.182541885216	640.372284294154	281.993251511128	895.633590657201	567.639572380132	344.639218842134	901.564651939603	496.270600881113	351.993978633397	877.245969388880	424.253603237224	341.520739720920	793.483530742229	307.185746867931	288.238679513261	850.514137190717	196.705280207025	355.854781613165	789.347543807509	388.580334567141	564.607791873335	677.531214813449	339.277606405604	633.351283189357	662.410233613468	233.208801657190	579.734475866307	460.588403588448	153.966179204112	566.150378444929	637.072880173816	118.073637142409	595.580448727188	532.046291301962	106.387166859727	636.864789049317	715.768770639131	32.776505806946	619.959641659371	728.418584592309	38.244937896655	395.250173695589	801.615611793323	35.381584314477	313.588077681396	885.104402039786	96.519397982921	339.276413622968	1013.203514801565	43.949622585930	309.603706994101	694.024047174168	1076.146922229816	179.451747571074	770.716914704726	827.238525930920	144.556557773109	898.463663004274	1097.702105227753	713.668318120707	1093.926482492229	960.023959432665	617.451177061842	
93	44.543714285714	822.815857772325	957.208772788788	309.299789564907	622.847732657452	1014.416038335299	482.588014259847	796.308759688920	1423.836461722881	271.892555235916	911.861700689480	1354.855357951854	424.275805960538	851.707408257828	1443.855315730561	601.417148035913	820.269386220347	1492.205018125618	416.586853323691	852.608080948975	935.950873036634	581.731530511230	887.622854104441	732.137031429184	553.177401386668	809.000191688278	624.759625315998	618.746282262339	882.107348352016	565.541432732777	537.223880558587	872.741415286499	457.134694871142	553.528463633286	883.539422675112	759.710802547572	339.055952115125	803.685640419142	640.220161637705	280.539333966248	893.462450086371	566.888460888842	343.369131213366	898.803884052037	495.553810154264	351.025138421081	873.960753561727	423.631139166129	340.696149408616	789.464944357000	307.062849835982	287.587921057095	845.515760827648	196.366770823409	355.605101337359	797.730972466777	389.909599793145	563.253259829357	684.403649824154	344.021083406220	631.864699240427	666.787084572757	237.995992080016	579.102843241507	463.437266551906	167.300825678063	565.472426901825	637.469429366691	121.594920734271	595.088069796349	531.944435676752	116.042263358734	636.341294671382	710.476023198117	31.718996145824	619.702490441698	722.297767669287	38.294159949844	395.155367770705	795.493271605369	35.358841827571	313.510414901157	879.104446294234	96.403692019490	339.220207818330	1007.154749809803	43.524326343901	309.517889605636	697.192033838481	1077.245400267220	176.008880895577	778.548394694862	829.735716235962	140.864703471154	892.274193625453	1096.385046521786	712.937552331324	1080.907917788812	943.787298424502	624.128859468057	
